<?xml version="1.0" encoding="utf-8"?><svg xmlns="http://www.w3.org/2000/svg" xmlns:xlink="http://www.w3.org/1999/xlink"><symbol viewBox="0 0 27 23" id="arrow-slider" xmlns="http://www.w3.org/2000/svg"><path d="M.94 10.94a1.5 1.5 0 0 0 0 2.12l9.545 9.547a1.5 1.5 0 1 0 2.122-2.122L4.12 12l8.486-8.485a1.5 1.5 0 1 0-2.122-2.122L.94 10.94zM27 10.5H2v3h25v-3z"/></symbol><symbol viewBox="0 0 28 28" id="facebook" xmlns="http://www.w3.org/2000/svg"><path d="M27.5 15.076C27.5 8.13 21.904 2.5 15 2.5S2.5 8.13 2.5 15.076c0 6.278 4.57 11.48 10.547 12.424v-8.788H9.873v-3.637h3.174v-2.77c0-3.152 1.865-4.893 4.721-4.893 1.367 0 2.799.245 2.799.245v3.095h-1.578c-1.552 0-2.036.97-2.036 1.965v2.359h3.467l-.554 3.635h-2.913V27.5C22.93 26.557 27.5 21.354 27.5 15.076z"/></symbol><symbol viewBox="0 0 27 29" id="file-upload" xmlns="http://www.w3.org/2000/svg"><path d="M18.666 2.667H8a2.667 2.667 0 0 0-2.667 2.666v21.334A2.667 2.667 0 0 0 8 29.332h16a2.667 2.667 0 0 0 2.666-2.666v-16m-8-8 8 8m-8-8v8h8M16 24v-8m-4 4h8"/></symbol><symbol viewBox="0 0 18 18" id="instagram" xmlns="http://www.w3.org/2000/svg"><g clip-path="url(#da)"><path d="M14.584 5.417h.008m-8.758-3.75h8.333a4.167 4.167 0 0 1 4.167 4.166v8.334a4.167 4.167 0 0 1-4.167 4.166H5.834a4.167 4.167 0 0 1-4.167-4.166V5.832a4.167 4.167 0 0 1 4.167-4.167zm7.5 7.808a3.334 3.334 0 1 1-6.596.977 3.334 3.334 0 0 1 6.596-.977z"/></g><defs><clipPath id="da"><path d="M0 0h20v20H0z"/></clipPath></defs></symbol><symbol viewBox="0 0 18 18" id="linkedin" xmlns="http://www.w3.org/2000/svg"><path d="M13.334 6.667a5 5 0 0 1 5 5V17.5H15v-5.834a1.667 1.667 0 0 0-3.333 0V17.5H8.334v-5.834a5 5 0 0 1 5-5zM5 7.5H1.667v10H5v-10zM3.334 5a1.667 1.667 0 1 0 0-3.334 1.667 1.667 0 0 0 0 3.334z"/></symbol><symbol viewBox="0 0 18 18" id="telegram" xmlns="http://www.w3.org/2000/svg"><path fill-rule="evenodd" clip-rule="evenodd" d="M18.2 5.047a1.25 1.25 0 0 0-1.719-1.355l-14.25 6c-.993.418-1.044 1.854 0 2.288a47.54 47.54 0 0 0 3.145 1.181c.973.322 2.035.62 2.886.704.232.278.525.546.823.791.456.375 1.004.761 1.571 1.131a49.193 49.193 0 0 0 3.242 1.913c1.015.55 2.229-.084 2.41-1.19L18.2 5.048zm-14.372 5.78 12.604-5.306-1.765 10.7a46.762 46.762 0 0 1-3.1-1.829 16.698 16.698 0 0 1-1.424-1.024 6.69 6.69 0 0 1-.355-.312l3.3-3.3a.834.834 0 0 0-1.178-1.179l-3.614 3.614c-.612-.078-1.463-.305-2.398-.613a40.8 40.8 0 0 1-2.069-.752v.001z"/></symbol><symbol viewBox="0 0 18 19" id="viber" xmlns="http://www.w3.org/2000/svg"><path d="M6.637 5.168a.683.683 0 0 0-.447.088h-.012a3.423 3.423 0 0 0-.834.686c-.2.231-.308.465-.337.69a.948.948 0 0 0 .035.395l.015.009c.225.66.518 1.296.876 1.895.462.84 1.031 1.617 1.692 2.312l.02.028.032.024.019.022.023.02a11.33 11.33 0 0 0 2.318 1.7c.963.524 1.547.772 1.898.875v.005a.962.962 0 0 0 .29.046c.299-.021.582-.143.803-.345.271-.24.5-.522.678-.837v-.005c.168-.317.111-.615-.13-.818a9.998 9.998 0 0 0-1.568-1.125c-.373-.202-.752-.08-.906.125l-.327.413c-.168.205-.473.177-.473.177l-.009.005c-2.276-.58-2.883-2.885-2.883-2.885s-.028-.313.182-.473l.41-.33c.197-.16.334-.538.123-.912a10 10 0 0 0-1.123-1.567.625.625 0 0 0-.366-.219m3.847-1a.417.417 0 1 0 0 .833c1.053 0 1.928.344 2.621 1.004.356.36.633.788.815 1.257.182.469.266.97.244 1.471a.417.417 0 0 0 .833.035 4.5 4.5 0 0 0-1.304-3.353l-.008-.008c-.86-.821-1.946-1.24-3.2-1.24z"/><path d="M10.454 5.536a.417.417 0 0 0 0 .834h.014c.76.054 1.313.307 1.7.723.398.428.604.961.588 1.62a.417.417 0 1 0 .834.018c.02-.864-.259-1.61-.81-2.205v-.001c-.565-.605-1.339-.925-2.27-.988l-.015-.001h-.041z"/><path d="M10.439 6.932a.416.416 0 1 0-.044.832c.349.018.571.123.711.264.141.142.246.37.265.725a.418.418 0 0 0 .813.121.418.418 0 0 0 .019-.165c-.027-.5-.183-.942-.504-1.267-.323-.325-.762-.483-1.26-.51z"/><path fill-rule="evenodd" clip-rule="evenodd" d="M5.89 1.987a18.459 18.459 0 0 1 8.053 0l.282.062a4.3 4.3 0 0 1 3.227 3.136 16.417 16.417 0 0 1 0 8.083 4.3 4.3 0 0 1-3.227 3.136l-.283.063c-1.66.37-3.365.51-5.064.415l-2.211 1.979a.626.626 0 0 1-1.033-.363l-.366-2.185a4.3 4.3 0 0 1-2.888-3.045 16.417 16.417 0 0 1 0-8.083 4.3 4.3 0 0 1 3.227-3.136l.282-.062zm7.78 1.219a17.208 17.208 0 0 0-7.508 0l-.283.063a3.05 3.05 0 0 0-2.287 2.223 15.166 15.166 0 0 0 0 7.469 3.05 3.05 0 0 0 2.287 2.223l.075.017a.626.626 0 0 1 .48.506l.245 1.465 1.56-1.395a.624.624 0 0 1 .461-.159c1.666.118 3.34-.007 4.97-.37l.283-.064a3.051 3.051 0 0 0 2.287-2.223c.622-2.45.622-5.018 0-7.469a3.05 3.05 0 0 0-2.287-2.223l-.283-.063z"/></symbol><symbol viewBox="0 0 18 18" id="whatsapp" xmlns="http://www.w3.org/2000/svg"><path d="M15.875 4.092a8.184 8.184 0 0 0-5.842-2.425c-4.55 0-8.258 3.708-8.258 8.258a8.28 8.28 0 0 0 1.1 4.125l-1.167 4.283 4.375-1.15a8.26 8.26 0 0 0 3.95 1.009c4.55 0 8.258-3.709 8.258-8.259a8.207 8.207 0 0 0-2.416-5.841zm-5.842 12.7a6.885 6.885 0 0 1-3.5-.959l-.25-.15-2.6.683.692-2.533-.167-.258a6.883 6.883 0 0 1-1.05-3.65c0-3.783 3.083-6.867 6.867-6.867 1.833 0 3.558.717 4.85 2.017a6.815 6.815 0 0 1 2.008 4.858c.017 3.784-3.067 6.858-6.85 6.858zm3.767-5.134c-.209-.1-1.225-.6-1.409-.675-.191-.067-.325-.1-.466.1a13.07 13.07 0 0 1-.65.809c-.117.141-.242.158-.45.05-.209-.1-.875-.325-1.659-1.026-.616-.55-1.025-1.224-1.15-1.433-.116-.208-.016-.316.092-.425.092-.091.208-.241.308-.358.1-.117.142-.208.209-.342.066-.141.033-.258-.017-.358a66.92 66.92 0 0 1-.633-1.533c-.167-.4-.342-.35-.467-.359h-.4a.749.749 0 0 0-.55.259c-.183.208-.717.708-.717 1.725 0 1.016.742 2 .842 2.133.1.142 1.458 2.225 3.525 3.117.492.216.875.341 1.175.433.492.158.942.133 1.3.083.4-.058 1.225-.5 1.392-.983.175-.483.175-.892.116-.983-.058-.092-.183-.134-.391-.234z"/></symbol></svg>