<svg width="20" height="20" viewBox="0 0 20 20" fill="none" xmlns="http://www.w3.org/2000/svg">
<path d="M6.63737 5.16817C6.48249 5.14549 6.32452 5.17667 6.18987 5.2565H6.17821C5.86571 5.43984 5.58404 5.67067 5.34404 5.94234C5.14404 6.17317 5.03571 6.4065 5.00737 6.6315C4.99071 6.76484 5.00237 6.89984 5.04154 7.02734L5.05654 7.03567C5.28154 7.6965 5.57487 8.33234 5.93321 8.93067C6.39545 9.77095 6.96402 10.5482 7.62487 11.2432L7.64487 11.2715L7.67654 11.2948L7.69571 11.3173L7.71904 11.3373C8.41652 12.0001 9.19557 12.5714 10.0374 13.0373C10.9999 13.5615 11.584 13.809 11.9349 13.9123V13.9173C12.0374 13.949 12.1307 13.9632 12.2249 13.9632C12.5238 13.9417 12.8068 13.8202 13.0282 13.6182C13.299 13.3782 13.5282 13.0957 13.7065 12.7815V12.7757C13.874 12.459 13.8174 12.1607 13.5757 11.9582C13.0907 11.5335 12.5657 11.1568 12.0082 10.8332C11.6349 10.6307 11.2557 10.7532 11.1024 10.9582L10.7749 11.3715C10.6065 11.5765 10.3015 11.5482 10.3015 11.5482L10.2932 11.5532C8.01737 10.9723 7.40987 8.66817 7.40987 8.66817C7.40987 8.66817 7.38154 8.35484 7.59237 8.19484L8.00237 7.86484C8.19904 7.70484 8.33571 7.3265 8.12487 6.95317C7.80202 6.39603 7.42611 5.87137 7.00237 5.3865C6.90969 5.27265 6.77988 5.19506 6.63571 5.16734M10.4832 4.1665C10.3727 4.1665 10.2667 4.2104 10.1886 4.28854C10.1104 4.36668 10.0665 4.47266 10.0665 4.58317C10.0665 4.69368 10.1104 4.79966 10.1886 4.8778C10.2667 4.95594 10.3727 4.99984 10.4832 4.99984C11.5365 4.99984 12.4115 5.344 13.104 6.004C13.4599 6.36484 13.7374 6.79234 13.919 7.26067C14.1015 7.72984 14.1849 8.23067 14.1632 8.73234C14.1586 8.84284 14.198 8.95067 14.2729 9.03209C14.3477 9.11351 14.4519 9.16186 14.5624 9.1665C14.6729 9.17114 14.7807 9.1317 14.8621 9.05684C14.9435 8.98198 14.9919 8.87784 14.9965 8.76734C15.0214 8.1503 14.919 7.53475 14.6957 6.959C14.4714 6.38032 14.1298 5.8543 13.6924 5.414L13.684 5.40567C12.8249 4.58484 11.7382 4.1665 10.4832 4.1665Z" fill="#FCF0E4"/>
<path d="M10.4538 5.53648C10.3433 5.53648 10.2373 5.58038 10.1591 5.65852C10.081 5.73666 10.0371 5.84264 10.0371 5.95314C10.0371 6.06365 10.081 6.16963 10.1591 6.24777C10.2373 6.32591 10.3433 6.36981 10.4538 6.36981H10.4679C11.2279 6.42398 11.7813 6.67731 12.1688 7.09314C12.5663 7.52148 12.7721 8.05398 12.7563 8.71231C12.7537 8.82282 12.7952 8.92981 12.8715 9.00975C12.9479 9.08968 13.0529 9.13602 13.1634 9.13856C13.2739 9.1411 13.3809 9.09964 13.4608 9.0233C13.5407 8.94696 13.5871 8.84198 13.5896 8.73148C13.6096 7.86731 13.3313 7.12148 12.7796 6.52648V6.52481C12.2154 5.91981 11.4413 5.59981 10.5096 5.53731L10.4954 5.53564L10.4538 5.53648Z" fill="#FCF0E4"/>
<path d="M10.4386 6.93228C10.3829 6.92736 10.3267 6.93372 10.2735 6.951C10.2202 6.96827 10.171 6.99609 10.1287 7.03281C10.0865 7.06952 10.0521 7.11438 10.0275 7.16469C10.003 7.21501 9.98883 7.26975 9.98592 7.32565C9.983 7.38155 9.99138 7.43747 10.0106 7.49006C10.0297 7.54265 10.0593 7.59084 10.0975 7.63175C10.1357 7.67266 10.1818 7.70545 10.233 7.72816C10.2841 7.75087 10.3393 7.76304 10.3953 7.76394C10.7436 7.78228 10.9661 7.88728 11.1061 8.02811C11.247 8.16978 11.352 8.39728 11.3711 8.75311C11.3722 8.80903 11.3845 8.86416 11.4073 8.91523C11.4301 8.9663 11.4629 9.01225 11.5038 9.05035C11.5448 9.08846 11.593 9.11793 11.6455 9.13702C11.6981 9.1561 11.754 9.16441 11.8098 9.16144C11.8657 9.15848 11.9204 9.1443 11.9706 9.11975C12.0209 9.09521 12.0657 9.0608 12.1023 9.01857C12.139 8.97635 12.1668 8.92717 12.1841 8.87398C12.2013 8.82078 12.2077 8.76466 12.2028 8.70894C12.1761 8.20894 12.0195 7.76728 11.6986 7.44228C11.3761 7.11728 10.937 6.95894 10.4386 6.93228Z" fill="#FCF0E4"/>
<path fill-rule="evenodd" clip-rule="evenodd" d="M5.88946 1.98655C8.54118 1.39381 11.2911 1.39381 13.9428 1.98655L14.2253 2.04905C15.0003 2.22278 15.712 2.60775 16.2815 3.16126C16.8511 3.71477 17.2562 4.4152 17.452 5.18489C18.1257 7.83722 18.1257 10.6159 17.452 13.2682C17.2562 14.0379 16.8511 14.7383 16.2815 15.2918C15.712 15.8454 15.0003 16.2303 14.2253 16.4041L13.942 16.4666C12.2811 16.8374 10.5769 16.9774 8.87779 16.8824L6.66696 18.8607C6.58361 18.9353 6.48176 18.9862 6.37203 19.0081C6.26231 19.0299 6.14873 19.0219 6.04316 18.9848C5.93759 18.9478 5.8439 18.8831 5.77186 18.7975C5.69983 18.7119 5.65209 18.6086 5.63362 18.4982L5.26779 16.3132C4.56647 16.0946 3.93285 15.6999 3.42737 15.1669C2.92189 14.6338 2.56141 13.9802 2.38029 13.2682C1.70657 10.6159 1.70657 7.83722 2.38029 5.18489C2.57607 4.4152 2.9812 3.71477 3.55074 3.16126C4.12028 2.60775 4.83199 2.22278 5.60696 2.04905L5.88946 1.98655ZM13.6703 3.20572C11.198 2.65306 8.63423 2.65306 6.16196 3.20572L5.87862 3.26905C5.32942 3.39254 4.82511 3.6656 4.42152 4.05801C4.01794 4.45042 3.73082 4.94687 3.59196 5.49239C2.96945 7.94291 2.96945 10.5102 3.59196 12.9607C3.73088 13.5063 4.01813 14.0029 4.42187 14.3953C4.82562 14.7877 5.3301 15.0607 5.87946 15.1841L5.95446 15.2007C6.07579 15.2279 6.18626 15.2906 6.27177 15.3808C6.35727 15.4711 6.41392 15.5848 6.43446 15.7074L6.67946 17.1724L8.23946 15.7766C8.30175 15.7206 8.37465 15.6778 8.45381 15.6506C8.53297 15.6234 8.61679 15.6124 8.70029 15.6182C10.3662 15.7358 12.0403 15.6109 13.6703 15.2474L13.9528 15.1841C14.5021 15.0607 15.0066 14.7877 15.4104 14.3953C15.8141 14.0029 16.1014 13.5063 16.2403 12.9607C16.862 10.5107 16.862 7.94322 16.2403 5.49239C16.1014 4.94676 15.8141 4.45024 15.4104 4.05782C15.0066 3.66541 14.5021 3.3924 13.9528 3.26905L13.6703 3.20572Z" fill="#FCF0E4"/>
</svg>
