<svg width="38" height="40" viewBox="0 0 38 40" fill="none" xmlns="http://www.w3.org/2000/svg">
<path fill-rule="evenodd" clip-rule="evenodd" d="M23.4372 1.25742C23.4949 1.07255 23.6915 0.969423 23.8763 1.02707L23.772 1.36179C23.8763 1.02707 23.8765 1.02713 23.8768 1.02721L23.8775 1.02745L23.8799 1.0282L23.8883 1.03085C23.8954 1.03312 23.9056 1.03641 23.9187 1.04074C23.9451 1.0494 23.9835 1.06222 24.0331 1.07936C24.1322 1.11364 24.276 1.16521 24.4583 1.23535C24.8228 1.3756 25.3412 1.59026 25.9622 1.88963C27.2034 2.488 28.8591 3.42693 30.5162 4.79004C33.8344 7.51952 37.1656 11.9588 37.1656 18.7525C37.1656 31.205 29.0537 40 18.7231 40C7.40119 40 0 30.5332 0 18.8927C0 18.6991 0.156977 18.5421 0.350619 18.5421C0.54426 18.5421 0.701238 18.6991 0.701238 18.8927C0.701238 30.2529 7.88738 39.2988 18.7231 39.2988C28.588 39.2988 36.4644 30.9011 36.4644 18.7525C36.4644 12.2226 33.2741 7.96659 30.0707 5.3316C28.4671 4.01247 26.862 3.10189 25.6577 2.5213C25.0559 2.2312 24.5553 2.02402 24.2065 1.8898C24.0321 1.82271 23.8958 1.77388 23.8038 1.74208C23.7579 1.72618 23.723 1.71453 23.7 1.70699C23.6885 1.70322 23.68 1.70047 23.6746 1.69873L23.6687 1.69688L23.6676 1.69651M23.4372 1.25742C23.3796 1.44223 23.4827 1.63876 23.6674 1.69647L23.4372 1.25742Z" fill="#939C89"/>
<path fill-rule="evenodd" clip-rule="evenodd" d="M2.29086 11.8955V0.601685C4.28422 1.42342 6.36927 3.2683 8.45588 5.82137C10.7251 8.59785 12.9543 12.1594 15.0295 16.0014C18.0137 21.5265 20.6656 27.6062 22.6484 32.711C20.982 29.9026 18.8759 26.7344 16.4555 23.6995C12.4475 18.6741 7.53615 13.9611 2.29086 11.8955ZM15.7976 24.2242C19.6871 29.101 22.7578 34.3297 24.4696 37.8016C22.7558 38.484 20.9161 38.8544 19.0008 38.8544C9.82212 38.8544 2.29086 30.3059 2.29086 19.6376V12.8032C7.21361 14.8483 11.8974 19.3339 15.7976 24.2242ZM21.8454 20.6536C22.2211 24.8432 22.8429 29.014 23.4892 32.5516C21.4899 27.3901 18.8018 21.215 15.7699 15.6015C13.6815 11.735 11.4234 8.12257 9.10744 5.28885C7.52537 3.35311 5.89639 1.75573 4.25554 0.696448L18.0123 2.27062C19.7018 2.46282 21.2716 2.78283 22.7203 3.21469C21.2632 7.57745 21.2645 14.1766 21.8454 20.6536ZM22.6835 20.5784C22.1018 14.093 22.1231 7.64491 23.5224 3.46929C31.5879 6.18903 35.7107 12.5205 35.7107 19.6376C35.7107 27.6948 31.404 34.5616 25.3384 37.4239C24.4097 33.3354 23.2573 26.9764 22.6835 20.5784Z" fill="#939C89"/>
</svg>
