<svg width="20" height="20" viewBox="0 0 20 20" fill="none" xmlns="http://www.w3.org/2000/svg">
<path fill-rule="evenodd" clip-rule="evenodd" d="M18.2001 5.04653C18.2365 4.82596 18.213 4.59968 18.1322 4.39126C18.0514 4.18284 17.9161 3.99991 17.7406 3.86154C17.565 3.72316 17.3555 3.6344 17.134 3.6045C16.9124 3.57459 16.6869 3.60465 16.481 3.69153L2.23098 9.69153C1.23764 10.1099 1.18681 11.5465 2.23098 11.9799C3.26505 12.4107 4.31404 12.8048 5.37598 13.1615C6.34931 13.4832 7.41098 13.7807 8.26181 13.8649C8.49431 14.1432 8.78681 14.4115 9.08515 14.6565C9.54098 15.0315 10.0893 15.4174 10.656 15.7874C11.791 16.529 13.0501 17.2382 13.8985 17.6999C14.9126 18.2499 16.1268 17.6165 16.3085 16.5107L18.2001 5.04653ZM3.82848 10.8274L16.4318 5.52069L14.6668 16.2207C13.8343 15.7682 12.6351 15.0907 11.5668 14.3924C11.0744 14.0762 10.5991 13.7343 10.1426 13.3682C10.0207 13.2685 9.90226 13.1646 9.78765 13.0565L13.0885 9.75653C13.2448 9.60027 13.3327 9.3883 13.3328 9.16724C13.3329 8.94618 13.2452 8.73414 13.0889 8.57778C12.9326 8.42141 12.7207 8.33352 12.4996 8.33344C12.2785 8.33336 12.0665 8.4211 11.9101 8.57736L8.29598 12.1915C7.68431 12.1132 6.83264 11.8865 5.89764 11.5782C5.20157 11.3463 4.51188 11.0956 3.82931 10.8265L3.82848 10.8274Z" fill="#FCF0E4"/>
</svg>
